<svg width="591" height="357" viewBox="0 0 591 357" fill="none" xmlns="http://www.w3.org/2000/svg">
<g filter="url(#filter0_d_231_121)">
<rect x="20" y="14" width="482" height="285" rx="10" fill="white"/>
</g>
<rect x="360" y="29" width="42" height="14" rx="7" fill="#C5C5C5"/>
<rect x="412" y="29" width="51" height="14" rx="7" fill="#C5C5C5"/>
<rect x="430" y="314" width="146" height="27" rx="8" fill="#C4C4C4"/>
<g filter="url(#filter1_d_231_121)">
<rect x="430" y="76" width="146" height="255" rx="8" fill="white"/>
</g>
<rect x="430" y="76" width="146" height="27" rx="4" fill="#C4C4C4"/>
<rect x="445" y="115" width="51" height="14" rx="7" fill="#C4C4C4" fill-opacity="0.78"/>
<rect x="458" y="140" width="51" height="14" rx="7" fill="#C4C4C4" fill-opacity="0.78"/>
<rect x="464" y="165" width="96" height="14" rx="7" fill="#C4C4C4" fill-opacity="0.78"/>
<rect x="458" y="190" width="51" height="14" rx="7" fill="#C4C4C4" fill-opacity="0.78"/>
<rect x="445" y="215" width="51" height="14" rx="7" fill="#C4C4C4" fill-opacity="0.78"/>
<rect x="445" y="240" width="51" height="14" rx="7" fill="#C4C4C4" fill-opacity="0.78"/>
<rect x="464" y="265" width="96" height="14" rx="7" fill="#C4C4C4" fill-opacity="0.78"/>
<rect x="445" y="290" width="51" height="14" rx="7" fill="#C4C4C4" fill-opacity="0.78"/>
<rect x="175" y="172" width="227" height="97" rx="8" fill="#F7F7F7"/>
<rect x="187" y="184" width="85" height="10" rx="5" fill="#C5C5C5"/>
<rect x="280" y="184" width="10" height="10" rx="5" fill="#C5C5C5"/>
<rect x="380" y="184" width="10" height="10" rx="5" fill="#C5C5C5"/>
<rect x="187" y="205" width="203" height="10" rx="2" fill="#C5C5C5"/>
<rect x="187" y="247" width="71" height="10" rx="2" fill="#C5C5C5"/>
<rect x="263" y="247" width="71" height="10" rx="2" fill="#C5C5C5"/>
<rect x="187" y="226" width="71" height="10" rx="2" fill="#C5C5C5"/>
<rect x="263" y="226" width="71" height="10" rx="2" fill="#C5C5C5"/>
<rect x="366" y="226" width="24" height="10" rx="2" fill="#C5C5C5"/>
<rect x="366" y="247" width="24" height="10" rx="2" fill="#C5C5C5"/>
<rect x="175" y="54" width="227" height="97" rx="8" fill="#F7F7F7"/>
<rect x="187" y="66" width="71" height="10" rx="5" fill="#C5C5C5"/>
<rect x="266" y="66" width="10" height="10" rx="5" fill="#C5C5C5"/>
<rect x="380" y="66" width="10" height="10" rx="5" fill="#C5C5C5"/>
<rect x="187" y="96" width="203" height="10" rx="2" fill="#C5C5C5"/>
<rect x="187" y="117" width="143" height="10" rx="2" fill="#C5C5C5"/>
<rect x="187" y="136" width="143" height="3" rx="1.5" fill="#C5C5C5"/>
<rect x="50" y="54" width="95" height="215" rx="8" fill="#F7F7F7"/>
<rect x="62" y="66" width="71" height="10" rx="5" fill="#C5C5C5"/>
<rect x="62" y="96" width="71" height="10" rx="2" fill="#C5C5C5"/>
<rect x="62" y="159" width="71" height="10" rx="2" fill="#C5C5C5"/>
<rect x="62" y="180" width="40" height="10" rx="2" fill="#C5C5C5"/>
<rect x="107" y="180" width="26" height="10" rx="2" fill="#C5C5C5"/>
<rect x="62" y="201" width="40" height="10" rx="2" fill="#C5C5C5"/>
<rect x="107" y="201" width="26" height="10" rx="2" fill="#C5C5C5"/>
<rect x="62" y="117" width="63" height="10" rx="2" fill="#C5C5C5"/>
<rect x="62" y="138" width="42" height="10" rx="2" fill="#C5C5C5"/>
<rect x="87" y="221" width="21" height="21" rx="10.5" fill="#C5C5C5"/>
<rect x="50" y="29" width="14" height="14" rx="7" fill="#F55353"/>
<rect x="69" y="29" width="14" height="14" rx="7" fill="#EC7834"/>
<rect x="88" y="29" width="14" height="14" rx="7" fill="#4CC458"/>
<defs>
<filter id="filter0_d_231_121" x="0" y="0" width="522" height="325" filterUnits="userSpaceOnUse" color-interpolation-filters="sRGB">
<feFlood flood-opacity="0" result="BackgroundImageFix"/>
<feColorMatrix in="SourceAlpha" type="matrix" values="0 0 0 0 0 0 0 0 0 0 0 0 0 0 0 0 0 0 127 0" result="hardAlpha"/>
<feOffset dy="6"/>
<feGaussianBlur stdDeviation="10"/>
<feComposite in2="hardAlpha" operator="out"/>
<feColorMatrix type="matrix" values="0 0 0 0 0 0 0 0 0 0 0 0 0 0 0 0 0 0 0.05 0"/>
<feBlend mode="normal" in2="BackgroundImageFix" result="effect1_dropShadow_231_121"/>
<feBlend mode="normal" in="SourceGraphic" in2="effect1_dropShadow_231_121" result="shape"/>
</filter>
<filter id="filter1_d_231_121" x="415" y="72" width="176" height="285" filterUnits="userSpaceOnUse" color-interpolation-filters="sRGB">
<feFlood flood-opacity="0" result="BackgroundImageFix"/>
<feColorMatrix in="SourceAlpha" type="matrix" values="0 0 0 0 0 0 0 0 0 0 0 0 0 0 0 0 0 0 127 0" result="hardAlpha"/>
<feOffset dy="11"/>
<feGaussianBlur stdDeviation="7.5"/>
<feComposite in2="hardAlpha" operator="out"/>
<feColorMatrix type="matrix" values="0 0 0 0 0 0 0 0 0 0 0 0 0 0 0 0 0 0 0.1 0"/>
<feBlend mode="normal" in2="BackgroundImageFix" result="effect1_dropShadow_231_121"/>
<feBlend mode="normal" in="SourceGraphic" in2="effect1_dropShadow_231_121" result="shape"/>
</filter>
</defs>
</svg>
