<svg width="45" height="55" viewBox="0 0 45 55" fill="none" xmlns="http://www.w3.org/2000/svg">
<path d="M34.2341 17.9502C34.2341 24.4675 28.9521 29.7495 22.4349 29.7495C17.6379 29.7495 13.5078 26.8849 11.6663 22.7775C20.2978 18.9202 25.5874 12.2514 28.4217 7.78027C31.9001 9.83397 34.2341 13.6231 34.2341 17.9502Z" stroke="#0B3655" stroke-width="2" stroke-linecap="round" stroke-linejoin="round"/>
<path d="M22.4349 29.7495C17.6379 29.7495 13.5078 26.8849 11.6663 22.7775C20.2978 18.9202 25.5874 12.2514 28.4217 7.78027C31.9001 9.83397 34.2341 13.6231 34.2341 17.9502C34.2341 24.4675 28.9521 29.7495 22.4349 29.7495Z" stroke="#0B3655" stroke-width="2" stroke-linecap="round" stroke-linejoin="round"/>
<path d="M36.0153 21.8228C41.7141 10.2433 28.5584 -2.41987 16.9713 1.84666C13.258 3.21074 10.2267 6.13592 8.62012 9.73556" stroke="#0B3655" stroke-width="2" stroke-linecap="round" stroke-linejoin="round"/>
<path d="M35.9546 21.9445C35.9773 21.9066 35.9925 21.8611 36.0152 21.8232" stroke="#0B3655" stroke-width="2" stroke-linecap="round" stroke-linejoin="round"/>
<path d="M34.2341 17.9502C34.2341 24.4675 28.9521 29.7495 22.4349 29.7495C17.6379 29.7495 13.5078 26.8849 11.6663 22.7775C20.2978 18.9202 25.5874 12.2514 28.4217 7.78027C31.9001 9.83397 34.2341 13.6231 34.2341 17.9502Z" stroke="#0B3655" stroke-width="2" stroke-linecap="round" stroke-linejoin="round"/>
<path d="M41.8807 53.9847L2.91359 53.924C2.12546 53.924 1.49647 53.2571 1.54951 52.469C2.0421 45.6107 5.82361 39.6619 11.3254 36.2138C11.3405 36.2062 11.3633 36.2138 11.3633 36.2365C11.4845 42.2915 16.4255 47.1567 22.5032 47.1567C28.581 47.1567 33.5295 42.2915 33.6508 36.2365C33.6508 36.2214 33.6735 36.2062 33.6887 36.2213C39.1526 39.6618 42.9189 45.5425 43.4494 52.3326C43.5176 53.2344 42.7901 53.9998 41.8883 53.9998L41.8807 53.9847Z" stroke="#0B3655" stroke-width="2" stroke-linecap="round" stroke-linejoin="round"/>
<path d="M33.6508 36.1831C33.5523 42.2533 28.5961 47.1412 22.5032 47.1412C16.4104 47.1412 11.4618 42.2533 11.3633 36.1831C14.5916 34.1446 18.411 32.9775 22.5032 32.9775C26.5955 32.9775 30.4225 34.1522 33.6508 36.1831Z" stroke="#0B3655" stroke-width="2" stroke-miterlimit="10"/>
<path d="M11.7647 22.6714C11.7647 22.6714 10.4764 23.5277 9.83984 23.5277C9.20327 23.5277 6.61152 23.8536 6.92223 17.2378C7.23294 10.622 10.1278 4.78683 16.3344 1.99805" stroke="#0B3655" stroke-width="2" stroke-linecap="round" stroke-linejoin="round"/>
<path d="M33.5598 21.7771C33.5598 21.7771 35.371 23.2246 36.1592 21.5498" stroke="#0B3655" stroke-width="2" stroke-linecap="round" stroke-linejoin="round"/>
</svg>
