<svg width="73" height="56" viewBox="0 0 73 56" fill="none" xmlns="http://www.w3.org/2000/svg">
<g id="Group">
<path id="Vector" d="M71.7142 5.56024V28.9179C71.7142 30.3831 71.0417 31.6752 69.9854 32.5055C69.4988 32.888 69.1249 33.4324 69.1249 34.0513V38.3269C69.1249 39.5571 67.7945 40.3271 66.7279 39.7142L56.2704 33.7063C56.0279 33.5669 55.753 33.4936 55.4733 33.4936H23.0588C20.5546 33.4936 18.5063 31.4454 18.5063 28.9102V5.55251C18.5063 3.04825 20.5546 1 23.0588 1H67.1617C69.6969 1 71.7142 3.04825 71.7142 5.55251V5.56024Z" stroke="#0B3655" stroke-width="2" stroke-linecap="round" stroke-linejoin="round"/>
<path id="Vector_2" d="M54.4994 38.0116C54.498 38.0087 54.4935 38.0097 54.4935 38.013V43.2247C54.4935 45.7599 52.4453 47.8081 49.941 47.8081H17.5265C17.2468 47.8081 16.972 47.8814 16.7294 48.0208L6.27196 54.0288C5.2053 54.6416 3.87491 53.8716 3.87491 52.6414V48.3658C3.87491 47.7469 3.50102 47.2026 3.01443 46.8201C1.95814 45.9897 1.28564 44.6976 1.28564 43.2324V19.8748C1.28564 17.3705 3.30296 15.3223 5.83814 15.3223H12.5276C13.5504 15.3223 14.3016 16.2935 14.3016 17.3164V17.3164V29.8454C14.3016 34.3748 17.9653 38.0384 22.5178 38.0384H54.1766C54.2835 38.0384 54.3904 38.0384 54.4973 38.0161C54.4993 38.0156 54.5003 38.0134 54.4994 38.0116V38.0116Z" stroke="#0B3655" stroke-width="2" stroke-linecap="round" stroke-linejoin="round"/>
<path id="Vector_3" d="M36.3219 15.5852C37.4915 15.5852 38.4397 14.637 38.4397 13.4674C38.4397 12.2978 37.4915 11.3496 36.3219 11.3496C35.1523 11.3496 34.2041 12.2978 34.2041 13.4674C34.2041 14.637 35.1523 15.5852 36.3219 15.5852Z" stroke="#0B3655" stroke-width="2" stroke-linecap="round" stroke-linejoin="round"/>
<path id="Vector_4" d="M36.3219 15.5852C37.4915 15.5852 38.4397 14.637 38.4397 13.4674C38.4397 12.2978 37.4915 11.3496 36.3219 11.3496C35.1523 11.3496 34.2041 12.2978 34.2041 13.4674C34.2041 14.637 35.1523 15.5852 36.3219 15.5852Z" stroke="#0B3655" stroke-width="2" stroke-linecap="round" stroke-linejoin="round"/>
<path id="Vector_5" d="M45.0563 15.5852C46.2259 15.5852 47.1741 14.637 47.1741 13.4674C47.1741 12.2978 46.2259 11.3496 45.0563 11.3496C43.8866 11.3496 42.9385 12.2978 42.9385 13.4674C42.9385 14.637 43.8866 15.5852 45.0563 15.5852Z" stroke="#0B3655" stroke-width="2" stroke-linecap="round" stroke-linejoin="round"/>
<path id="Vector_6" d="M45.0563 15.5852C46.2259 15.5852 47.1741 14.637 47.1741 13.4674C47.1741 12.2978 46.2259 11.3496 45.0563 11.3496C43.8866 11.3496 42.9385 12.2978 42.9385 13.4674C42.9385 14.637 43.8866 15.5852 45.0563 15.5852Z" stroke="#0B3655" stroke-width="2" stroke-linecap="round" stroke-linejoin="round"/>
<path id="Vector_7" d="M53.9064 15.5852C55.076 15.5852 56.0242 14.637 56.0242 13.4674C56.0242 12.2978 55.076 11.3496 53.9064 11.3496C52.7367 11.3496 51.7886 12.2978 51.7886 13.4674C51.7886 14.637 52.7367 15.5852 53.9064 15.5852Z" stroke="#0B3655" stroke-width="2" stroke-linecap="round" stroke-linejoin="round"/>
<path id="Vector_8" d="M53.9064 15.5852C55.076 15.5852 56.0242 14.637 56.0242 13.4674C56.0242 12.2978 55.076 11.3496 53.9064 11.3496C52.7367 11.3496 51.7886 12.2978 51.7886 13.4674C51.7886 14.637 52.7367 15.5852 53.9064 15.5852Z" stroke="#0B3655" stroke-width="2" stroke-linecap="round" stroke-linejoin="round"/>
</g>
</svg>
