<svg width="51" height="59" viewBox="0 0 51 59" fill="none" xmlns="http://www.w3.org/2000/svg">
<g id="Group">
<path id="Vector" d="M49.2409 27.542V55.0622C49.2409 56.1599 48.3581 57.0427 47.2604 57.0427H19.605C18.5153 57.0427 17.6245 56.1599 17.6245 55.0622V49.1605L32.0845 53.4715C33.1265 53.7817 34.2321 53.1851 34.5423 52.1432L42.4643 25.5615H47.2445C48.3421 25.5615 49.225 26.4444 49.225 27.542H49.2409Z" stroke="#0B3655" stroke-width="2" stroke-miterlimit="10"/>
<path id="Vector_2" d="M43.554 21.99L42.4882 25.5692L34.5662 52.1508C34.256 53.1928 33.1505 53.7973 32.1085 53.4791L17.6485 49.1681L3.17252 44.8492C2.13057 44.539 1.52608 43.4335 1.84423 42.3915L10.84 12.2306C11.1502 11.1887 12.2558 10.5842 13.2977 10.9023L42.2337 19.5322C43.2757 19.8424 43.8722 20.948 43.562 21.99H43.554Z" stroke="#0B3655" stroke-width="2" stroke-miterlimit="10"/>
<path id="Vector_3" d="M33.6355 16.8201V1L27.519 15.126L33.6355 16.8201Z" stroke="#0B3655" stroke-width="2" stroke-linecap="round" stroke-linejoin="round"/>
<path id="Vector_4" d="M28.3144 41.8032C30.2341 41.8032 31.7903 40.247 31.7903 38.3274C31.7903 36.4077 30.2341 34.8516 28.3144 34.8516C26.3948 34.8516 24.8386 36.4077 24.8386 38.3274C24.8386 40.247 26.3948 41.8032 28.3144 41.8032Z" stroke="#0B3655" stroke-width="2" stroke-linecap="round" stroke-linejoin="round"/>
<path id="Vector_5" d="M17.0835 29.8325C19.0031 29.8325 20.5593 28.2763 20.5593 26.3567C20.5593 24.437 19.0031 22.8809 17.0835 22.8809C15.1638 22.8809 13.6077 24.437 13.6077 26.3567C13.6077 28.2763 15.1638 29.8325 17.0835 29.8325Z" stroke="#0B3655" stroke-width="2" stroke-linecap="round" stroke-linejoin="round"/>
<path id="Vector_6" d="M16.2964 39.274L29.8974 24.5674" stroke="#0B3655" stroke-width="2" stroke-linecap="round" stroke-linejoin="round"/>
</g>
</svg>
