<svg width="35" height="57" viewBox="0 0 35 57" fill="none" xmlns="http://www.w3.org/2000/svg">
<g id="Group">
<path id="Vector" d="M28.9353 8.41992H6.07235C5.72659 8.41992 5.44629 8.70022 5.44629 9.04599V46.1771C5.44629 46.5229 5.72659 46.8032 6.07235 46.8032H28.9353C29.2811 46.8032 29.5614 46.5229 29.5614 46.1771V9.04599C29.5614 8.70022 29.2811 8.41992 28.9353 8.41992Z" stroke="#0B3655" stroke-width="2" stroke-linecap="round" stroke-linejoin="round"/>
<path id="Vector_2" d="M31.5558 1H3.44464C2.15975 1 1.11816 2.04161 1.11816 3.3265V52.9403C1.11816 54.2252 2.15975 55.2668 3.44464 55.2668H31.5558C32.8407 55.2668 33.8823 54.2252 33.8823 52.9403V3.3265C33.8823 2.04161 32.8407 1 31.5558 1Z" stroke="#0B3655" stroke-width="2" stroke-linecap="round" stroke-linejoin="round"/>
<path id="Vector_3" d="M21.4576 50.0107H13.5506C13.0149 50.0107 12.5806 50.445 12.5806 50.9808C12.5806 51.5165 13.0149 51.9508 13.5506 51.9508H21.4576C21.9933 51.9508 22.4276 51.5165 22.4276 50.9808C22.4276 50.445 21.9933 50.0107 21.4576 50.0107Z" stroke="#0B3655" stroke-linecap="round" stroke-linejoin="round"/>
</g>
</svg>
